<svg width="25" height="25" viewBox="0 0 25 25" fill="none" xmlns="http://www.w3.org/2000/svg">
<circle cx="12.5" cy="12.5" r="12.5" fill="url(#paint0_linear)"/>
<path fill-rule="evenodd" clip-rule="evenodd" d="M18.6196 15.9677C19.1278 16.391 19.1279 17.0711 18.6133 17.4919L17.3644 18.5133C16.8527 18.9318 15.9242 19.1259 15.3014 18.9126C15.3014 18.9126 12.7851 18.4383 9.67035 15.3249C6.55564 12.2115 6.08111 9.69613 6.08111 9.69613C5.8831 9.0687 6.05958 8.14834 6.48058 7.63401L7.50243 6.3856C7.92106 5.87415 8.60338 5.8709 9.02724 6.37932L10.5696 8.22941C10.8516 8.5677 10.8838 9.13652 10.6377 9.50549L9.95233 10.5331C9.95233 10.5331 9.96063 12.2326 11.3622 13.6337C12.7639 15.0347 14.4641 15.043 14.4641 15.043L15.4921 14.3579C15.8588 14.1136 16.4329 14.1462 16.7688 14.426L18.6196 15.9677Z" stroke="white" stroke-linecap="round" stroke-linejoin="round"/>
<defs>
<linearGradient id="paint0_linear" x1="20" y1="3" x2="3" y2="20" gradientUnits="userSpaceOnUse">
<stop stop-color="#F49C19"/>
<stop offset="1" stop-color="#ED6D1A"/>
</linearGradient>
</defs>
</svg>
